<svg xmlns="http://www.w3.org/2000/svg" xmlns:xlink="http://www.w3.org/1999/xlink" version="1.1" x="0px" y="0px" viewBox="0 0 100 125" style="enable-background:new 0 0 100 100;" xml:space="preserve"><style type="text/css">
	.st0{display:none;}
	.st1{display:inline;}
	.st2{fill:none;}
	.st3{fill:#F2D14E;}
	.st4{fill:none;stroke:#F2D14E;stroke-miterlimit:10;}
	.st5{fill:#F2D14E;}
	.st6{fill:none;stroke:#F2D14E;stroke-miterlimit:10;}
	.st7{fill:none;stroke:#F2D14E;stroke-width:1.5;stroke-linecap:square;stroke-miterlimit:10;stroke-dasharray:0,3;}
	.st8{fill:none;stroke:#F2D14E;stroke-width:0.25;stroke-miterlimit:10;}
	.st9{fill:none;stroke:#F2D14E;stroke-width:1.2;stroke-miterlimit:10;}
	.st10{fill:none;stroke:#F2D14E;stroke-width:2;stroke-miterlimit:10;}
	.st11{fill:#F2D14E;stroke:#F2D14E;stroke-width:2;stroke-miterlimit:10;}
	.st12{stroke:#F2D14E;stroke-width:0.75;stroke-miterlimit:10;}
	.st13{fill:none;stroke:#F2D14E;stroke-width:3;stroke-miterlimit:10;}
	.st14{stroke:#F2D14E;stroke-miterlimit:10;}
</style><g><g><path fill="#F2D14E" d="M18.4,22.7c-12.1,12.1-12.1,31.8,0,43.9c11.2,11.1,28.7,12,40.9,2.6l5.5,5.5l0.2,1.9L79.5,91c1.5,1.5,4.9,0.4,6.5-0.9    c0.1-0.1,0.2-0.2,0.3-0.2l0-0.1l0,0l1.1-1c1.4-1.4,2.8-5,1.2-6.7L74.4,67.7l-0.1-0.2l-2-0.3l-5.9-5.9c7.7-12,6.3-28.2-4.2-38.7    C50.1,10.6,30.5,10.6,18.4,22.7z M55.2,29.7c8.2,8.2,8.2,21.6,0,29.8c-8.2,8.2-21.6,8.2-29.8,0c-8.2-8.2-8.2-21.5,0-29.8    C33.6,21.5,47,21.5,55.2,29.7z"/><path fill="#F2D14E" class="st12" d="M51.3,43.4l0.2,1.3l3.9-0.6l-0.2-1.3c-1.4-8.7-9.6-14.6-18.3-13.2l-1.3,0.2l0.6,3.9l1.3-0.2    C44.1,32.4,50.3,36.9,51.3,43.4z"/></g></g></svg>